<mxfile host="app.diagrams.net" modified="2022-10-24T04:00:52.417Z" agent="5.0 (Windows NT 10.0; Win64; x64) AppleWebKit/537.36 (KHTML, like Gecko) Chrome/106.0.0.0 Safari/537.36" etag="XgUppsgNBoCPUVdfD-Ds" version="20.5.1" type="github">
  <diagram id="sRs_vVW3RLByiWjG__vL" name="Page-1">
    <mxGraphModel dx="1297" dy="689" grid="1" gridSize="10" guides="1" tooltips="1" connect="1" arrows="1" fold="1" page="1" pageScale="1" pageWidth="850" pageHeight="1100" math="0" shadow="0">
      <root>
        <mxCell id="0" />
        <mxCell id="1" parent="0" />
        <mxCell id="lO_QtBEhfESn6oeVL6au-1" value="imcryptr system&lt;br&gt;- extension&lt;br&gt;- server&lt;br&gt;- database" style="ellipse;whiteSpace=wrap;html=1;aspect=fixed;" parent="1" vertex="1">
          <mxGeometry x="370" y="250" width="110" height="110" as="geometry" />
        </mxCell>
        <mxCell id="lO_QtBEhfESn6oeVL6au-3" value="" style="endArrow=classic;html=1;rounded=0;exitX=0;exitY=0;exitDx=0;exitDy=0;entryX=1;entryY=0.5;entryDx=0;entryDy=0;" parent="1" source="lO_QtBEhfESn6oeVL6au-1" target="lO_QtBEhfESn6oeVL6au-7" edge="1">
          <mxGeometry width="50" height="50" relative="1" as="geometry">
            <mxPoint x="400" y="380" as="sourcePoint" />
            <mxPoint x="300" y="220" as="targetPoint" />
          </mxGeometry>
        </mxCell>
        <mxCell id="lO_QtBEhfESn6oeVL6au-4" value="Scans emails for encrypted images" style="text;html=1;strokeColor=none;fillColor=none;align=center;verticalAlign=middle;whiteSpace=wrap;rounded=0;" parent="1" vertex="1">
          <mxGeometry x="340" y="170" width="70" height="70" as="geometry" />
        </mxCell>
        <mxCell id="lO_QtBEhfESn6oeVL6au-6" value="Users" style="rounded=1;whiteSpace=wrap;html=1;" parent="1" vertex="1">
          <mxGeometry x="365" y="440" width="120" height="60" as="geometry" />
        </mxCell>
        <mxCell id="lO_QtBEhfESn6oeVL6au-7" value="Email service" style="rounded=1;whiteSpace=wrap;html=1;" parent="1" vertex="1">
          <mxGeometry x="200" y="195" width="120" height="60" as="geometry" />
        </mxCell>
        <mxCell id="lO_QtBEhfESn6oeVL6au-8" value="Company IT dept" style="rounded=1;whiteSpace=wrap;html=1;" parent="1" vertex="1">
          <mxGeometry x="580" y="275" width="120" height="60" as="geometry" />
        </mxCell>
        <mxCell id="3MIUqt5S8bDXBPCrPIQD-1" value="" style="endArrow=classic;html=1;rounded=0;exitX=0.5;exitY=0;exitDx=0;exitDy=0;entryX=0.5;entryY=1;entryDx=0;entryDy=0;" parent="1" source="lO_QtBEhfESn6oeVL6au-6" target="lO_QtBEhfESn6oeVL6au-1" edge="1">
          <mxGeometry width="50" height="50" relative="1" as="geometry">
            <mxPoint x="400" y="340" as="sourcePoint" />
            <mxPoint x="450" y="290" as="targetPoint" />
          </mxGeometry>
        </mxCell>
        <mxCell id="3MIUqt5S8bDXBPCrPIQD-2" value="Encrypt/decrypt using extension" style="text;html=1;strokeColor=none;fillColor=none;align=center;verticalAlign=middle;whiteSpace=wrap;rounded=0;" parent="1" vertex="1">
          <mxGeometry x="425" y="360" width="95" height="70" as="geometry" />
        </mxCell>
        <mxCell id="3MIUqt5S8bDXBPCrPIQD-3" value="" style="endArrow=classic;html=1;rounded=0;exitX=0;exitY=0.5;exitDx=0;exitDy=0;entryX=1;entryY=0.5;entryDx=0;entryDy=0;" parent="1" source="lO_QtBEhfESn6oeVL6au-8" target="lO_QtBEhfESn6oeVL6au-1" edge="1">
          <mxGeometry width="50" height="50" relative="1" as="geometry">
            <mxPoint x="400" y="320" as="sourcePoint" />
            <mxPoint x="450" y="270" as="targetPoint" />
          </mxGeometry>
        </mxCell>
        <mxCell id="3MIUqt5S8bDXBPCrPIQD-4" value="Modify the security settings in the server. Manage employee keys in the database." style="text;html=1;strokeColor=none;fillColor=none;align=center;verticalAlign=middle;whiteSpace=wrap;rounded=0;" parent="1" vertex="1">
          <mxGeometry x="510" y="170" width="60" height="145" as="geometry" />
        </mxCell>
        <mxCell id="3MIUqt5S8bDXBPCrPIQD-5" value="" style="endArrow=classic;html=1;rounded=0;exitX=0.388;exitY=1.012;exitDx=0;exitDy=0;exitPerimeter=0;entryX=0.414;entryY=0.011;entryDx=0;entryDy=0;entryPerimeter=0;" parent="1" source="lO_QtBEhfESn6oeVL6au-1" target="lO_QtBEhfESn6oeVL6au-6" edge="1">
          <mxGeometry width="50" height="50" relative="1" as="geometry">
            <mxPoint x="400" y="390" as="sourcePoint" />
            <mxPoint x="450" y="340" as="targetPoint" />
          </mxGeometry>
        </mxCell>
        <mxCell id="3MIUqt5S8bDXBPCrPIQD-6" value="Database sends public keys" style="text;html=1;strokeColor=none;fillColor=none;align=center;verticalAlign=middle;whiteSpace=wrap;rounded=0;" parent="1" vertex="1">
          <mxGeometry x="350" y="360" width="60" height="70" as="geometry" />
        </mxCell>
        <mxCell id="QUe8aJkOpkoAzaac0jyI-1" value="&lt;b&gt;&lt;font style=&quot;font-size: 18px;&quot;&gt;Context Diagram&lt;/font&gt;&lt;/b&gt;" style="text;html=1;align=center;verticalAlign=middle;resizable=0;points=[];autosize=1;strokeColor=none;fillColor=none;" vertex="1" parent="1">
          <mxGeometry x="360" y="55" width="170" height="40" as="geometry" />
        </mxCell>
        <mxCell id="QUe8aJkOpkoAzaac0jyI-2" value="Dylan&lt;br&gt;Nabil" style="text;html=1;align=center;verticalAlign=middle;resizable=0;points=[];autosize=1;strokeColor=none;fillColor=none;fontSize=18;" vertex="1" parent="1">
          <mxGeometry x="110" y="95" width="70" height="60" as="geometry" />
        </mxCell>
      </root>
    </mxGraphModel>
  </diagram>
</mxfile>
